<svg width="64" height="64" viewBox="0 0 64 64" fill="none" xmlns="http://www.w3.org/2000/svg">
<path d="M32.1307 22.5149C26.834 22.5149 22.5249 26.8244 22.5249 32.1212C22.5249 37.4179 26.8339 41.7274 32.1307 41.7274C37.4276 41.7274 41.7366 37.4179 41.7366 32.1212C41.7366 26.8244 37.4276 22.5149 32.1307 22.5149ZM32.1307 40.9182C27.2805 40.9182 23.3338 36.9717 23.3338 32.1213C23.3338 27.2705 27.2804 23.3238 32.1307 23.3238C36.9811 23.3238 40.9277 27.2703 40.9277 32.1207C40.9277 36.9721 36.9811 40.9182 32.1307 40.9182Z" fill="#745ACB"/>
<path d="M17.8948 46.7618H46.3682C46.5918 46.7618 46.773 46.5806 46.773 46.3571L46.7724 17.8836C46.7724 17.6601 46.5912 17.4789 46.3677 17.4789H17.8942C17.6707 17.4789 17.4895 17.6601 17.4895 17.8836L17.4901 46.3571C17.4901 46.5806 17.6707 46.7618 17.8948 46.7618ZM18.2989 18.2883H45.9632L45.9638 45.9526H18.2995L18.2989 18.2883Z" fill="#745ACB"/>
<path d="M51.888 7.53621C52.0449 8.3287 52.4322 9.05677 53.0164 9.64098C53.7942 10.4194 54.8294 10.8478 55.93 10.8478C57.0307 10.8478 58.0659 10.4188 58.8437 9.64098C59.6221 8.86261 60.0511 7.82795 60.0511 6.72731C60.0511 5.62666 59.6221 4.59147 58.8437 3.81364C58.0659 3.03527 57.0307 2.60684 55.93 2.60684C54.8294 2.60684 53.7942 3.03583 53.0164 3.81364C52.4322 4.39728 52.0449 5.12597 51.888 5.9184L43.4799 5.91728V13.8026H39.4509V8.61926H37.8326V13.8026H32.931V8.61926H31.3127V13.8026H26.4099V8.61926H24.7916V13.8026H20.5487V5.91728H12.1362C11.9826 5.14568 11.6095 4.409 11.0129 3.81251C10.2345 3.03414 9.19931 2.60571 8.09866 2.60571C6.99798 2.60571 5.96282 3.0347 5.18499 3.81251C4.40662 4.59032 3.97763 5.62553 3.97763 6.72618C3.97763 7.82685 4.40662 8.86201 5.18499 9.63985C5.96279 10.4182 6.99801 10.8466 8.09866 10.8466C9.19933 10.8466 10.2345 10.4177 11.0129 9.63985C11.6095 9.04323 11.9826 8.30662 12.1362 7.53508L18.9299 7.53621V13.8033H13.8109V23.0399H8.62758V24.6581H13.8109V29.5604H8.62758V31.1787H13.8109V36.0803H8.62758V37.6986H13.8109V50.423H18.9299V56.5005H12.1356C11.982 55.7289 11.609 54.9922 11.0123 54.3957C10.234 53.6173 9.19873 53.1889 8.09808 53.1889C6.99743 53.1889 5.96225 53.6179 5.18441 54.3957C4.40604 55.1735 3.97705 56.2087 3.97705 57.3094C3.97705 58.41 4.40604 59.4452 5.18441 60.223C5.96222 61.0014 6.99743 61.4298 8.09808 61.4298C9.19873 61.4298 10.2339 61.0008 11.0123 60.223C11.609 59.6264 11.982 58.8898 12.1356 58.1183L20.5487 58.1188V50.4225H24.7916V55.2858H26.4099V50.4225H31.3127V55.2858H32.931V50.4225H37.8326V55.2858H39.4509V50.4225H43.4805L43.48 58.1188H51.8881C52.045 58.9113 52.4322 59.6394 53.0164 60.2236C53.7942 61.002 54.8294 61.4304 55.9301 61.4304C57.0307 61.4304 58.0659 61.0014 58.8437 60.2236C59.6221 59.4452 60.0511 58.4106 60.0511 57.3099C60.0511 56.2093 59.6221 55.1741 58.8437 54.3963C58.0659 53.6179 57.0307 53.1895 55.9301 53.1895C54.8294 53.1895 53.7942 53.6185 53.0164 54.3963C52.4322 54.9799 52.045 55.7086 51.8881 56.501H45.0983V50.4236H50.4306L50.4312 37.6987H55.6151V36.0805H50.4312V31.1788H55.6151V29.5605H50.4312V24.6583H55.6151V23.04H50.4312V13.8028H45.0989V7.53577L51.888 7.53621ZM54.161 4.9572C54.6334 4.48476 55.2617 4.22455 55.9305 4.22455C56.5988 4.22398 57.2271 4.4842 57.6995 4.9572C58.1719 5.4302 58.4327 6.05844 58.4327 6.72673C58.4327 7.39502 58.1719 8.02327 57.6995 8.49626C56.7546 9.44115 55.1059 9.44115 54.161 8.49626C53.6886 8.02326 53.4278 7.39446 53.4278 6.72673C53.4272 6.05786 53.688 5.42962 54.161 4.9572ZM9.86926 8.49626C8.92437 9.44115 7.27507 9.44115 6.32962 8.49626C5.85718 8.02326 5.5964 7.39446 5.5964 6.72673C5.5964 6.05842 5.85718 5.43019 6.32962 4.9572C6.80206 4.48476 7.4303 4.22455 8.09915 4.22455C8.76746 4.22455 9.39682 4.48476 9.86926 4.9572C10.8441 5.93256 10.8441 7.52032 9.86926 8.49626ZM9.86926 59.0795C8.92437 60.0244 7.27507 60.0244 6.32962 59.0795C5.85718 58.6065 5.5964 57.9777 5.5964 57.3099C5.5964 56.6416 5.85718 56.0134 6.32962 55.5404C6.80206 55.068 7.4303 54.8078 8.09915 54.8078C8.76746 54.8078 9.39682 55.068 9.86926 55.5404C10.8441 56.5158 10.8441 58.1035 9.86926 59.0795ZM54.161 55.5398C54.6334 55.0674 55.2617 54.8072 55.9305 54.8072C56.5988 54.8072 57.2271 55.0674 57.7001 55.5398C58.1725 56.0128 58.4333 56.6411 58.4333 57.3094C58.4333 57.9777 58.1725 58.6059 57.7001 59.0789C56.7552 60.0238 55.1065 60.0238 54.1616 59.0789C53.6891 58.6059 53.4284 57.9771 53.4284 57.3094C53.4272 56.6411 53.688 56.0128 54.161 55.5398H54.161ZM48.8122 48.8043H15.4287V15.4208H48.8122V48.8043Z" fill="#745ACB"/>
<path d="M35.1175 35.5819C34.8573 36.1181 34.715 36.1853 34.1799 36.1915V36.1887H30.8407V36.1915C30.3056 36.1853 30.1634 36.1187 29.9032 35.5819L28.7314 33.1802C28.566 32.8466 28.4418 32.6107 28.4418 32.2223C28.4418 31.7922 28.5519 31.5422 28.7314 31.1674L29.9308 28.7515C30.186 28.2373 30.2876 28.1724 30.8407 28.169V28.1724H34.1799V28.169C34.7331 28.1718 34.8347 28.2373 35.0898 28.7515L35.5888 29.7568H37.115L36.3033 28.1131C35.8348 27.1553 35.2416 26.7805 34.1799 26.7805H33.2221V24.88H31.7991V26.7805H30.8412C29.7795 26.7805 29.1868 27.1553 28.7178 28.1131L27.4495 30.6813C27.174 31.2361 27.064 31.6115 27.064 32.2222C27.064 32.7635 27.2017 33.2078 27.4359 33.6802L28.7042 36.2626C29.1456 37.1651 29.7383 37.5811 30.7723 37.5811H31.799V39.345H33.222L33.2215 37.5805H34.2482C35.2823 37.5805 35.875 37.164 36.3163 36.262L37.1974 34.4682L35.6609 34.4676L35.1175 35.5819Z" fill="#745ACB"/>
</svg>
