<svg width="64" height="64" viewBox="0 0 64 64" fill="none" xmlns="http://www.w3.org/2000/svg">
<path d="M47.2198 8.39731C45.6737 8.39731 44.4155 9.71563 44.4155 11.3363C44.4155 12.7816 45.4161 13.983 46.7282 14.2272V17.1008C46.7282 26.3065 39.5844 33.7954 30.8033 33.7954H13.2154C12.9824 32.4194 11.8353 31.3711 10.4576 31.3711C8.91042 31.3711 7.65332 32.6883 7.65332 34.3107C7.65332 35.9309 8.91096 37.2502 10.4576 37.2502C11.8353 37.2502 12.9824 36.2013 13.2154 34.8243H30.8033C40.1263 34.8243 47.7127 26.873 47.7127 17.0991V14.2256C49.0243 13.9808 50.0245 12.7789 50.0245 11.3347C50.024 9.71453 48.7663 8.39624 47.2207 8.39624L47.2198 8.39731ZM10.4554 36.2203C9.45131 36.2203 8.63378 35.3628 8.63378 34.3117C8.63378 33.2597 9.45037 32.4031 10.4554 32.4031C11.459 32.4031 12.2762 33.2596 12.2762 34.3117C12.2767 35.3638 11.4591 36.2203 10.4554 36.2203ZM47.2211 13.2456H47.2196C46.216 13.2451 45.3989 12.3891 45.3989 11.337C45.3989 10.2849 46.2159 9.42843 47.2205 9.42843C48.2241 9.42843 49.0407 10.2844 49.0407 11.337C49.0402 12.3885 48.2251 13.2445 47.221 13.2456H47.2211Z" fill="#745ACB"/>
<path d="M63.5084 30.3334H58.9434V30.1976C58.9434 29.492 58.3958 28.917 57.7227 28.917H55.5425V5.74505C56.7327 5.65646 57.6768 4.61491 57.6768 3.34479V2.40912C57.6768 1.08033 56.6457 0 55.3791 0H2.29926C1.03163 0 0 1.08086 0 2.40912V3.34479C0 4.61487 0.943606 5.65648 2.13425 5.74505V39.5999C0.944118 39.6885 0.00102453 40.7279 0.00102453 41.9985V42.9358C0.00102453 44.2635 1.03214 45.3449 2.29875 45.3449H28.3471V54.4646C26.9269 54.712 25.8377 56.0067 25.8377 57.5647C25.8377 59.2997 27.1839 60.7087 28.8385 60.7087C30.4932 60.7087 31.8393 59.2997 31.8393 57.5647C31.8393 56.0069 30.7502 54.7121 29.33 54.4646V45.3449H43.7328V57.2889C43.7328 57.5735 43.9539 57.8042 44.2254 57.8042H47.4872C47.7387 61.2637 50.5031 64 53.8674 64C57.2308 64 59.9951 61.2637 60.2471 57.8042H63.5089C63.78 57.8042 64 57.5735 64 57.2889V30.8507C63.999 30.5651 63.7795 30.3344 63.5085 30.3344L63.5084 30.3334ZM30.8558 57.5632C30.8558 58.729 29.9512 59.6773 28.8391 59.6773C27.7269 59.6773 26.8223 58.728 26.8223 57.5632C26.8223 56.3964 27.7269 55.4492 28.8391 55.4492C29.9512 55.4487 30.8558 56.3964 30.8558 57.5632ZM57.9602 30.1978V31.5014C57.9602 31.6367 57.8522 31.751 57.7222 31.751H50.0099C49.8804 31.751 49.7718 31.6367 49.7718 31.5014V30.1978C49.7718 30.0621 49.8798 29.9478 50.0099 29.9478H55.0494H55.0509H57.7222C57.8512 29.9473 57.9602 30.0615 57.9602 30.1978ZM50.0103 28.9172C49.3362 28.9172 48.7887 29.4923 48.7887 30.1978V30.3336H44.2252C43.9537 30.3336 43.7327 30.5642 43.7327 30.8488V39.5907H3.11759V5.75326H54.5588V28.9172L50.0103 28.9172ZM0.983431 3.34461V2.40894C0.983431 1.64835 1.5725 1.03081 2.29814 1.03081H55.3779C56.1025 1.03081 56.6926 1.6483 56.6926 2.40894V3.34461C56.6926 4.10416 56.1026 4.72221 55.3779 4.72221H2.29814C1.57255 4.72221 0.983431 4.10472 0.983431 3.34461ZM28.8496 44.3129H28.8386H28.8271H2.2974C1.57332 44.3129 0.983203 43.6959 0.983203 42.9353V41.9981C0.983203 41.2375 1.57327 40.6199 2.2974 40.6199H43.733V44.3128L28.8496 44.3129ZM63.0165 56.7722H60.2472C59.9942 53.3141 57.2304 50.5785 53.8675 50.5785C50.5042 50.5785 47.7388 53.3148 47.4873 56.7722H44.7164V31.3646H48.7898V31.5014C48.7898 32.207 49.3374 32.7809 50.0115 32.7809H57.7238C58.3969 32.7809 58.9444 32.2075 58.9444 31.5014V31.3646H63.0179V56.7722H63.0165Z" fill="#745ACB"/>
<path d="M59.0096 57.327C59.0096 60.2729 56.7314 62.661 53.9211 62.661C51.1107 62.661 48.8325 60.2729 48.8325 57.327C48.8325 54.3811 51.1107 51.9929 53.9211 51.9929C56.7314 51.9929 59.0096 54.3811 59.0096 57.327Z" fill="#070D14"/>
<path d="M15.0214 16.7493H15.794V20.2833H15.7995V22.7862H15.0269C14.1058 22.7862 13.3557 23.5725 13.3557 24.5386C13.3557 25.5052 14.1058 26.291 15.0269 26.291H15.7995V29.8245H19.1704V30.6344C19.1704 31.5999 19.9205 32.3862 20.843 32.3862C21.7641 32.3862 22.5142 31.601 22.5142 30.6344V29.8245H29.2515V27.9841C29.2515 27.5868 29.5595 27.2628 29.9396 27.2628C30.3186 27.2628 30.6271 27.5868 30.6271 27.9841V29.8245H34.9822V26.291H35.7548C36.6759 26.291 37.426 25.5047 37.426 24.5386C37.426 23.572 36.6759 22.7862 35.7548 22.7862H34.9822V15.7187H33.2265C32.8474 15.7187 32.5384 15.3948 32.5384 14.9974C32.5384 14.599 32.8474 14.2762 33.2265 14.2762H34.9822V9.71155H31.6108V8.90168C31.6108 7.9351 30.8607 7.14929 29.9391 7.14929C29.017 7.14929 28.2673 7.93557 28.2673 8.90168V9.71155H22.5087V8.90168C22.5087 7.9351 21.7597 7.14929 20.837 7.14929C19.9149 7.14929 19.1658 7.93557 19.1658 8.90168V9.71155H15.7944V13.245H15.0218C14.1007 13.245 13.3506 14.0313 13.3506 14.9974C13.3501 15.963 14.1002 16.7493 15.0213 16.7493H15.0214ZM24.8966 25.2594V28.7934H21.5307V30.6338C21.5307 31.0311 21.2227 31.3551 20.8431 31.3551C20.4631 31.3551 20.154 31.0311 20.154 30.6338V28.7934H16.7832V25.2594H15.0274C14.6484 25.2594 14.3394 24.9354 14.3394 24.5381C14.3394 24.1397 14.6484 23.8168 15.0274 23.8168H16.7832V20.2833H20.154V18.4429C20.154 18.0461 20.4616 17.7232 20.8401 17.7222C21.2186 17.7237 21.5257 18.0466 21.5257 18.4429V20.2833H24.8971V23.8168H26.6528C27.0328 23.8168 27.3409 24.1408 27.3409 24.5381C27.3409 24.9354 27.0328 25.2594 26.6528 25.2594H24.8966ZM35.7542 23.8168C36.1333 23.8168 36.4423 24.1408 36.4423 24.5381C36.4423 24.9354 36.1333 25.2594 35.7542 25.2594H33.9985V28.7934H31.6098V27.9835C31.6098 27.0169 30.8597 26.2311 29.9385 26.2311C29.0159 26.2311 28.2659 27.0174 28.2659 27.9835V28.7934H25.8846V26.2905H26.6567C27.5788 26.2905 28.3284 25.5042 28.3284 24.5381C28.3284 23.5715 27.5783 22.7857 26.6567 22.7857H25.8846V20.2828H29.2505V18.4424C29.2505 18.044 29.5585 17.7211 29.9385 17.7211C30.2696 17.7211 30.5481 17.969 30.6126 18.2977C30.6211 18.3449 30.6261 18.3931 30.6261 18.4429V20.2833H33.9985V23.8168L35.7542 23.8163L35.7542 23.8168ZM25.8801 14.2762V10.7421H29.2515V8.90171C29.2515 8.50332 29.5595 8.18044 29.9391 8.18044C30.3191 8.18044 30.6271 8.50332 30.6271 8.90171V10.7421H33.9995V13.245H33.2269C32.3048 13.245 31.5557 14.0313 31.5557 14.9974C31.5557 15.963 32.3048 16.7493 33.2269 16.7493H33.9995V19.2533H31.6108V18.4434C31.6108 18.3223 31.5988 18.2044 31.5763 18.0901C31.5648 18.033 31.5513 17.9774 31.5353 17.9224C31.3233 17.21 30.6872 16.6906 29.9386 16.6906H29.9381C29.0735 16.6906 28.3619 17.3809 28.2754 18.2642C28.2699 18.3229 28.2659 18.3832 28.2659 18.4429V19.2528H25.8791V15.7188H24.1234C23.7433 15.7188 23.4353 15.3948 23.4353 14.9975C23.4353 14.5991 23.7433 14.2762 24.1234 14.2762L25.8801 14.2762ZM15.0214 14.2762H16.7771V10.7421H20.1485V8.90171C20.1485 8.50332 20.4576 8.18044 20.8366 8.18044C21.2166 8.18044 21.5247 8.50332 21.5247 8.90171V10.7421H24.896V13.245H24.124C23.2014 13.245 22.4513 14.0313 22.4513 14.9974C22.4513 15.963 23.2014 16.7493 24.124 16.7493H24.896V19.2533H22.5138V18.4434C22.5138 17.4768 21.7637 16.691 20.8426 16.691H20.8396H20.8366C19.9145 16.691 19.1654 17.4773 19.1654 18.4434V19.2533H16.7766V15.7192H15.0209C14.6419 15.7192 14.3328 15.3953 14.3328 14.998C14.3333 14.5991 14.6424 14.2762 15.0214 14.2762L15.0214 14.2762Z" fill="#745ACB"/>
<path d="M48.0649 37.2993H60.1623V38.2051H48.0649V37.2993Z" fill="#745ACB"/>
<path d="M48.0649 40.5195H60.1623V41.4253H48.0649V40.5195Z" fill="#745ACB"/>
<path d="M48.0649 43.6396H60.1623V44.5454H48.0649V43.6396Z" fill="#745ACB"/>
<path d="M51.4244 56.4336H52.9834V56.8633H52.4601V58.173H51.9473V56.8633H51.4243L51.4244 56.4336ZM54.0795 57.8859H53.4951L53.4148 58.173H52.8907L53.5144 56.4336H54.0736L54.6978 58.173H54.1609L54.0795 57.8859ZM53.972 57.5097L53.7884 56.8844L53.606 57.5097H53.972ZM54.7477 56.4337H55.3123L55.6068 56.9687L55.892 56.4337H56.4516L55.9352 57.2761L56.5003 58.1731H55.924L55.5967 57.6142L55.2681 58.1731H54.6954L55.2681 57.2668L54.7477 56.4337Z" fill="#745ACB"/>
</svg>
