<svg width="64" height="64" viewBox="0 0 64 64" fill="none" xmlns="http://www.w3.org/2000/svg">
<g clip-path="url(#clip0_73_1355)">
<path d="M56.963 11.9106H46.5064C46.3695 9.36679 45.386 6.94178 43.7123 5.02079C42.0387 3.10027 39.771 1.79378 37.2694 1.31021C33.7945 0.660433 30.2291 0.660433 26.7543 1.31021C24.2526 1.79382 21.985 3.10027 20.3113 5.02079C18.6377 6.94178 17.6543 9.36679 17.5173 11.9106H7.06064C5.40698 11.9129 3.82152 12.5706 2.65203 13.7401C1.48291 14.9092 0.824777 16.4947 0.822876 18.1484V51.4165C0.825197 53.0701 1.48286 54.6556 2.65238 55.8247C3.8215 56.9943 5.40698 57.652 7.06064 57.6542H31.319V61.8128H26.4671C26.0847 61.8128 25.7742 62.1233 25.7742 62.5061C25.7742 62.8886 26.0847 63.1991 26.4671 63.1991H37.5568C37.9392 63.1991 38.2497 62.8886 38.2497 62.5061C38.2497 62.1232 37.9392 61.8128 37.5568 61.8128H32.7049V57.6542H51.4182C51.8011 57.6542 52.1116 57.3442 52.1116 56.9613C52.1116 56.5784 51.8011 56.2684 51.4182 56.2684H7.06112C5.77507 56.2665 4.54189 55.7551 3.63225 54.8453C2.72304 53.9357 2.21111 52.703 2.20968 51.4165V18.1484C2.21107 16.8623 2.72299 15.6292 3.63225 14.72C4.54192 13.8103 5.77507 13.2984 7.06112 13.2969H15.4515C15.14 13.7054 14.9256 14.1792 14.8254 14.6833H7.21005C6.25165 14.6847 5.33266 15.0657 4.65506 15.7438C3.97745 16.4214 3.5964 17.3404 3.59548 18.2988V40.327C3.59548 40.7099 3.90597 41.0199 4.28887 41.0199C4.67131 41.0199 4.98179 40.7099 4.98179 40.327V18.2988C4.98226 17.7079 5.2171 17.1413 5.63481 16.7231C6.05251 16.3053 6.61921 16.07 7.21005 16.0691H14.6852V20.921C14.6856 21.8395 15.0513 22.7208 15.7011 23.3701C16.3504 24.0199 17.2318 24.3856 18.1502 24.3861H19.5366C20.0879 24.3856 20.6161 24.1661 21.006 23.7763C21.3958 23.3864 21.6149 22.8582 21.6158 22.3069V22.085C22.2015 23.7419 22.9585 25.3329 23.8738 26.833C24.077 27.1574 24.505 27.2553 24.8294 27.052C25.1538 26.8488 25.2522 26.4208 25.0489 26.0964C23.1413 23.0411 21.9853 19.5774 21.6752 15.9889C23.1813 15.8162 24.5718 15.0968 25.5822 13.9671C25.9683 13.5383 26.5187 13.2941 27.0956 13.2969H36.9285C37.5045 13.2937 38.0544 13.5373 38.4397 13.9657C39.458 15.1037 40.861 15.8249 42.3791 15.9921C42.0788 19.4553 40.9826 22.8026 39.1757 25.7724H35.3389C35.1894 24.9974 34.7763 24.298 34.1702 23.7925C33.5636 23.2876 32.8015 23.0072 32.0121 23.0003C30.7738 23.0003 29.6297 23.6607 29.011 24.7328C28.3919 25.8049 28.3919 27.1259 29.011 28.1984C29.6297 29.2705 30.7738 29.931 32.0121 29.931C32.8015 29.9235 33.5637 29.6437 34.1702 29.1382C34.7764 28.6333 35.1894 27.9338 35.3389 27.1588H38.2545C36.9363 29.4428 34.6279 30.9803 32.0121 31.3173C30.0409 31.1395 28.2248 30.1756 26.9736 28.6425C26.8506 28.4987 26.6747 28.411 26.4858 28.4003C26.2969 28.3896 26.1122 28.4569 25.9739 28.5859C25.8356 28.7149 25.7557 28.8946 25.7534 29.0839C25.7511 29.2728 25.8263 29.4548 25.9613 29.587C26.7146 30.4053 27.5863 31.1061 28.5465 31.6663V34.3391C25.015 34.8223 21.6228 36.0359 18.5856 37.9021C15.5488 39.7684 12.9336 42.2463 10.9067 45.1786H7.21002C6.61919 45.1781 6.0525 44.9433 5.63477 44.5256C5.21707 44.1079 4.98222 43.5412 4.98176 42.9508C4.98176 42.5679 4.67126 42.2574 4.28883 42.2574C3.90593 42.2574 3.59544 42.5679 3.59544 42.9508C3.59683 43.9088 3.97788 44.8273 4.65549 45.5049C5.3331 46.1824 6.25165 46.5635 7.21001 46.5649H56.8139C57.7723 46.5635 58.6908 46.1825 59.3684 45.5049C60.046 44.8272 60.4271 43.9087 60.4285 42.9508V18.2992C60.4276 17.3407 60.0465 16.4218 59.3689 15.7442C58.6913 15.0661 57.7723 14.685 56.8139 14.6836H49.2005C49.0998 14.1796 48.8854 13.7057 48.574 13.2973H56.9629C58.2489 13.2987 59.4821 13.8106 60.3917 14.7204C61.3009 15.6296 61.8129 16.8627 61.8143 18.1488V51.4169C61.8129 52.7034 61.301 53.9361 60.3917 54.8457C59.4821 55.7554 58.2489 56.2669 56.9629 56.2688H54.1907C53.8078 56.2688 53.4973 56.5788 53.4973 56.9617C53.4973 57.3446 53.8078 57.6546 54.1907 57.6546H56.9629C58.6165 57.6523 60.202 56.9946 61.3711 55.8251C62.5407 54.656 63.1984 53.0705 63.2006 51.4169V18.1488C63.1988 16.4951 62.5406 14.9096 61.3715 13.7405C60.2019 12.5709 58.6164 11.9132 56.9629 11.911L56.963 11.9106ZM32.012 28.5447C31.4606 28.5447 30.9315 28.3256 30.5416 27.9357C30.1518 27.5459 29.9327 27.0172 29.9327 26.4654C29.9327 25.914 30.1518 25.3854 30.5416 24.9951C30.9315 24.6052 31.4606 24.3861 32.012 24.3861C32.5633 24.3861 33.0924 24.6052 33.4823 24.9951C33.8721 25.3854 34.0912 25.914 34.0912 26.4654C34.0903 27.0168 33.8712 27.5449 33.4814 27.9348C33.0915 28.3246 32.5633 28.5442 32.012 28.5446L32.012 28.5447ZM27.0088 2.67158C30.3156 2.05431 33.7084 2.05431 37.0152 2.67158C39.1989 3.09625 41.1798 4.23376 42.6465 5.90607C44.1136 7.57827 44.9833 9.69056 45.1202 11.9104H44.4876C44.0727 11.921 43.6712 12.0589 43.337 12.3049C42.4468 8.95109 40.1161 6.16406 36.9726 4.69515C33.8287 3.22625 30.1955 3.22625 27.0516 4.69515C23.9081 6.16406 21.5773 8.95109 20.6872 12.3049C20.353 12.0589 19.9515 11.921 19.5366 11.9104H18.9036C19.04 9.68996 19.9102 7.5778 21.3773 5.9056C22.8444 4.2334 24.8253 3.09587 27.0089 2.67158H27.0088ZM20.2293 22.3069C20.2293 22.4907 20.1565 22.667 20.0265 22.797C19.8966 22.927 19.7202 23.0003 19.5364 23.0003H18.1501C17.5992 22.9993 17.0706 22.7798 16.6807 22.3904C16.2913 22.0006 16.0718 21.4719 16.0709 20.921V15.3762C16.0718 14.8248 16.2913 14.2967 16.6807 13.9068C17.0706 13.517 17.5992 13.2979 18.1501 13.297H19.5364C19.7202 13.297 19.8966 13.3698 20.0265 13.4998C20.1565 13.6297 20.2293 13.8061 20.2293 13.9899V22.3069ZM36.9287 11.9106H27.0959C26.1222 11.9078 25.1939 12.3214 24.545 13.0472C23.8071 13.8845 22.7976 14.435 21.694 14.602C21.94 11.0868 23.9588 7.93868 27.0504 6.24831C30.1423 4.55793 33.8822 4.55793 36.9741 6.24831C40.0657 7.93868 42.0846 11.0868 42.3305 14.602C41.2259 14.435 40.216 13.8845 39.4766 13.0472C38.8287 12.3214 37.9014 11.9078 36.9286 11.9106H36.9287ZM42.4086 22.1844V22.3069C42.4095 22.8583 42.6286 23.3864 43.0184 23.7763C43.4083 24.1661 43.9365 24.3857 44.4878 24.3861H45.0401C44.9 24.7895 44.6382 25.1389 44.291 25.3873C43.9439 25.6356 43.5285 25.7702 43.1015 25.7725H40.7395H40.74C41.3884 24.6215 41.9462 23.4217 42.4085 22.1844H42.4086ZM29.9331 32.299C30.5991 32.5482 31.3018 32.6846 32.0123 32.7032C32.7229 32.6935 33.426 32.5607 34.0916 32.3119V34.2181C33.4005 34.1629 32.7127 34.0895 32.0123 34.0895C31.3119 34.0895 30.6241 34.1624 29.9331 34.2181V32.299ZM39.234 36.6204V36.6199C37.3259 38.5492 34.7251 39.6343 32.0118 39.6343C29.2986 39.6343 26.6981 38.5492 24.7902 36.6199C29.4838 35.0938 34.5403 35.0938 39.2345 36.6199L39.234 36.6204ZM23.2974 37.0956V37.0952C25.5061 39.5912 28.6793 41.0202 32.0122 41.0202C35.3451 41.0202 38.5182 39.5912 40.727 37.0952C44.9622 38.7428 48.6513 41.5429 51.3767 45.1787H12.6479C15.3733 41.5428 19.0625 38.7428 23.2976 37.0952L23.2974 37.0956ZM59.0428 18.2992V42.9508C59.0423 43.5412 58.8074 44.1079 58.3897 44.5256C57.972 44.9433 57.4053 45.1781 56.8145 45.1786H53.1178C51.091 42.2463 48.4757 39.7684 45.4389 37.9021C42.4018 36.0359 39.0095 34.8222 35.478 34.3391V31.6723C37.2639 30.5111 38.7719 28.9698 39.8936 27.1588H43.1016C43.9115 27.1509 44.6922 26.8567 45.3053 26.3276C45.9184 25.7985 46.3245 25.0693 46.4507 24.2697C47.2504 24.1435 47.9795 23.7378 48.5086 23.1247C49.0372 22.5116 49.3319 21.7306 49.3394 20.9211V16.0692H56.8145C57.4053 16.0701 57.972 16.3054 58.3897 16.7231C58.8074 17.1413 59.0423 17.708 59.0427 18.2988L59.0428 18.2992ZM47.9536 15.3766V20.9214C47.9526 21.4723 47.7331 22.0009 47.3437 22.3908C46.9538 22.7802 46.4252 22.9997 45.8743 23.0006H44.488C44.1051 23.0006 43.7951 22.6901 43.7951 22.3072V13.9902C43.7951 13.6078 44.1051 13.2973 44.488 13.2973H45.8743C46.4252 13.2982 46.9539 13.5173 47.3437 13.9071C47.7331 14.297 47.9526 14.8252 47.9536 15.3765V15.3766Z" fill="#745ACB"/>
<path d="M28.5461 51.4164C28.5461 52.3358 28.9114 53.2172 29.5612 53.867C30.2114 54.5167 31.0928 54.882 32.0117 54.882C32.9306 54.882 33.812 54.5167 34.4623 53.867C35.1121 53.2172 35.4773 52.3358 35.4773 51.4164C35.4773 50.4974 35.1121 49.6161 34.4623 48.9663C33.812 48.3161 32.9306 47.9513 32.0117 47.9513C31.0928 47.9518 30.2119 48.3175 29.5621 48.9673C28.9124 49.6166 28.5471 50.4979 28.5462 51.4164L28.5461 51.4164ZM34.091 51.4164C34.091 51.9682 33.8719 52.4969 33.4821 52.8867C33.0922 53.2766 32.5631 53.4957 32.0117 53.4957C31.4604 53.4957 30.9313 53.2766 30.5414 52.8867C30.1515 52.4969 29.9325 51.9682 29.9325 51.4164C29.9325 50.865 30.1515 50.3364 30.5414 49.9461C30.9313 49.5562 31.4604 49.3371 32.0117 49.3371C32.5626 49.3385 33.0913 49.5576 33.4806 49.9475C33.8705 50.3373 34.09 50.8655 34.091 51.4164L34.091 51.4164Z" fill="#745ACB"/>
</g>
<defs>
<clipPath id="clip0_73_1355">
<rect width="64" height="64" fill="white"/>
</clipPath>
</defs>
</svg>
