<svg width="64" height="64" viewBox="0 0 64 64" fill="none" xmlns="http://www.w3.org/2000/svg">
<path d="M43.4123 7.43628C41.336 7.43628 39.6531 9.12942 39.6531 11.2058C39.6531 13.2821 41.336 14.965 43.4123 14.965C45.4887 14.965 47.1716 13.2821 47.1716 11.2058C47.1716 9.12942 45.4882 7.43628 43.4123 7.43628ZM43.4123 13.4534C42.1725 13.4534 41.1647 12.4456 41.1647 11.2058C41.1647 9.95616 42.1725 8.94792 43.4123 8.94792C44.6522 8.94792 45.66 9.95573 45.66 11.2058C45.6595 12.4456 44.6517 13.4534 43.4123 13.4534Z" fill="#745ACB"/>
<path d="M50.3362 33.1875C51.5557 33.1875 52.5537 32.1899 52.5537 30.97C52.5537 29.7506 51.5561 28.7526 50.3362 28.7526C49.1168 28.7526 48.129 29.7502 48.129 30.97C48.1188 32.1895 49.1168 33.1875 50.3362 33.1875ZM50.3362 30.2648C50.7292 30.2648 51.0415 30.5771 51.0415 30.9701C51.0415 31.3631 50.7292 31.6754 50.3362 31.6754C49.9534 31.6754 49.6407 31.3631 49.6407 30.9701C49.6309 30.5771 49.9432 30.2648 50.3362 30.2648Z" fill="#745ACB"/>
<path d="M22.9032 39.8596C20.3632 39.8596 18.2971 41.9259 18.2971 44.4657C18.2971 47.0056 20.3634 49.0718 22.9032 49.0718C25.4431 49.0718 27.5093 47.0055 27.5093 44.4657C27.5093 41.9257 25.443 39.8596 22.9032 39.8596ZM22.9032 47.5597C21.1998 47.5597 19.8092 46.1686 19.8092 44.4657C19.8092 42.7623 21.2003 41.3717 22.9032 41.3717C24.6066 41.3717 25.9972 42.7628 25.9972 44.4657C25.9972 46.1691 24.6066 47.5597 22.9032 47.5597Z" fill="#745ACB"/>
<path d="M59.6287 11.9217C56.4944 11.2164 54.0148 8.73684 53.3096 5.60249C52.9667 4.07042 51.6568 3.0022 50.1145 3.0022H43.6037C40.1566 -1.32129 31.0768 -0.948787 22.5802 3.94969C18.3067 6.41908 14.8096 9.66425 12.7236 13.0807C10.5567 16.6386 10.1636 19.9948 11.6248 22.5143C13.046 24.9837 16.0393 26.2935 19.9095 26.2935C21.3609 26.2935 22.9329 26.1019 24.5861 25.7293V33.2377C24.0316 33.1871 23.4674 33.157 22.893 33.157C11.3933 33.157 2.27213 43.5279 1.88965 43.9714C1.6377 44.2535 1.6377 44.6767 1.88965 44.9592C2.28219 45.4028 11.4035 55.7737 22.9037 55.7737C23.4781 55.7737 24.0423 55.7435 24.5968 55.6929V60.7018C24.5968 62.5059 26.0682 63.9771 27.8624 63.9771H58.9647C60.7688 63.9771 62.2401 62.5058 62.2401 60.7018V15.1162C62.2401 13.5739 61.1715 12.264 59.6296 11.9211L59.6287 11.9217ZM12.9349 21.7584C11.7656 19.7325 12.1489 16.9309 14.0132 13.8666C15.9685 10.6618 19.274 7.59758 23.3358 5.25944C27.6496 2.77009 32.175 1.50018 35.8532 1.50018C38.151 1.50018 40.1063 1.99387 41.4672 3.00172H36.7103C35.1782 3.00172 33.858 4.06985 33.5152 5.60202C32.8099 8.73636 30.3304 11.216 27.196 11.9212C25.664 12.2641 24.5958 13.5842 24.5958 15.1162V24.1869C19.0923 25.4977 14.5571 24.5702 12.9345 21.7584H12.9349ZM13.0959 44.4556C13.0959 39.0533 17.5001 34.6693 22.9025 34.6693C28.3049 34.6693 32.7092 39.0634 32.7092 44.4556C32.7092 49.8676 28.3049 54.2622 22.9025 54.2622C17.5001 54.2622 13.0959 49.8677 13.0959 44.4556ZM34.2204 44.4556C34.2204 41.2911 32.9101 38.4287 30.7937 36.3727C36.5384 38.7715 40.9227 43.0246 42.3036 44.4658C40.9227 45.907 36.5384 50.16 30.784 52.5589C32.9099 50.5028 34.2204 47.6303 34.2204 44.4556ZM30.965 54.1513C38.4029 51.2184 43.6238 45.2922 43.9065 44.9595C44.1584 44.6773 44.1584 44.2542 43.9065 43.9716C43.6142 43.6389 38.4035 37.7128 30.965 34.7798V28.3998C30.965 27.2407 31.9023 26.3035 33.0613 26.3035H53.7629C54.922 26.3035 55.8592 27.2407 55.8592 28.3998V55.511C55.8592 56.67 54.9219 57.6073 53.7629 57.6073L33.072 57.6077C31.9129 57.6077 30.9757 56.6704 30.9757 55.5114V54.151L30.965 54.1513ZM3.49032 44.4658C4.87118 43.0246 9.25548 38.7715 15.0002 36.3727C12.8937 38.4287 11.5735 41.2911 11.5735 44.4556C11.5735 47.6303 12.8936 50.5028 15.0104 52.5589C9.26522 50.16 4.88092 45.907 3.49032 44.4658ZM60.7274 60.7023C60.7274 61.6698 59.9414 62.466 58.9637 62.466H27.8709C26.9035 62.466 26.1174 61.68 26.1174 60.7023V55.5121C27.2663 55.3204 28.385 55.0383 29.4633 54.6959V55.5121C29.4633 57.4975 31.0859 59.1201 33.0714 59.1201H53.773C55.7687 59.1201 57.3811 57.4975 57.3811 55.5121V28.4009C57.3811 26.4154 55.7585 24.7928 53.773 24.7928L33.0726 24.7924C31.0769 24.7924 29.4645 26.4149 29.4645 28.4004V34.2459C28.3862 33.8932 27.2675 33.6111 26.1186 33.4297V15.1263C26.1186 14.3 26.7033 13.5943 27.5399 13.403C31.2389 12.5664 34.1718 9.64375 35.0079 5.94471C35.1995 5.10811 35.9048 4.52346 36.7312 4.52346H43.2619L50.1152 4.52392C50.9415 4.52392 51.6472 5.10856 51.8385 5.94517C52.6751 9.64421 55.5977 12.5669 59.3065 13.4035C60.1431 13.5951 60.7278 14.3004 60.7278 15.1268L60.7274 60.7023Z" fill="#745ACB"/>
</svg>
