<svg width="254" height="119" viewBox="0 0 254 119" fill="none" xmlns="http://www.w3.org/2000/svg">
<path d="M250.166 86.9258H202.905M89.6926 90V71.9523M187.452 3L139.495 44.1943L92.1519 3.92226M187.452 89.0777V72.7208M40.5053 31.2827C55.7858 31.2827 68.1731 43.67 68.1731 58.9505C68.1731 74.2311 55.7858 86.6184 40.5053 86.6184H3M40.5053 58.9505C25.2248 58.9505 12.8375 46.5632 12.8375 31.2827C12.8375 16.0022 25.2248 3.61484 40.5053 3.61484H66.3286H79.2403M92.1519 3.61484L99.2226 9.76325M89.6926 40.4284V23.9046L139.495 67.2509L187.452 26.364V42.0424" stroke="white" stroke-width="6" stroke-linecap="round" stroke-linejoin="round"/>
<path d="M6.576 114.084C6.024 114.084 5.528 113.988 5.088 113.796C4.656 113.596 4.316 113.324 4.068 112.98C3.82 112.628 3.692 112.224 3.684 111.768H4.848C4.888 112.16 5.048 112.492 5.328 112.764C5.616 113.028 6.032 113.16 6.576 113.16C7.096 113.16 7.504 113.032 7.8 112.776C8.104 112.512 8.256 112.176 8.256 111.768C8.256 111.448 8.168 111.188 7.992 110.988C7.816 110.788 7.596 110.636 7.332 110.532C7.068 110.428 6.712 110.316 6.264 110.196C5.712 110.052 5.268 109.908 4.932 109.764C4.604 109.62 4.32 109.396 4.08 109.092C3.848 108.78 3.732 108.364 3.732 107.844C3.732 107.388 3.848 106.984 4.08 106.632C4.312 106.28 4.636 106.008 5.052 105.816C5.476 105.624 5.96 105.528 6.504 105.528C7.288 105.528 7.928 105.724 8.424 106.116C8.928 106.508 9.212 107.028 9.276 107.676H8.076C8.036 107.356 7.868 107.076 7.572 106.836C7.276 106.588 6.884 106.464 6.396 106.464C5.94 106.464 5.568 106.584 5.28 106.824C4.992 107.056 4.848 107.384 4.848 107.808C4.848 108.112 4.932 108.36 5.1 108.552C5.276 108.744 5.488 108.892 5.736 108.996C5.992 109.092 6.348 109.204 6.804 109.332C7.356 109.484 7.8 109.636 8.136 109.788C8.472 109.932 8.76 110.16 9 110.472C9.24 110.776 9.36 111.192 9.36 111.72C9.36 112.128 9.252 112.512 9.036 112.872C8.82 113.232 8.5 113.524 8.076 113.748C7.652 113.972 7.152 114.084 6.576 114.084ZM17.219 106.524V109.32H20.267V110.22H17.219V113.1H20.627V114H16.127V105.624H20.627V106.524H17.219ZM31.8433 114L29.8513 110.58H28.5313V114H27.4393V105.636H30.1393C30.7713 105.636 31.3033 105.744 31.7353 105.96C32.1753 106.176 32.5033 106.468 32.7193 106.836C32.9353 107.204 33.0433 107.624 33.0433 108.096C33.0433 108.672 32.8753 109.18 32.5393 109.62C32.2113 110.06 31.7153 110.352 31.0513 110.496L33.1513 114H31.8433ZM28.5313 109.704H30.1393C30.7313 109.704 31.1753 109.56 31.4713 109.272C31.7673 108.976 31.9153 108.584 31.9153 108.096C31.9153 107.6 31.7673 107.216 31.4713 106.944C31.1833 106.672 30.7393 106.536 30.1393 106.536H28.5313V109.704ZM46.2361 108.06C46.0041 107.572 45.6681 107.196 45.2281 106.932C44.7881 106.66 44.2761 106.524 43.6921 106.524C43.1081 106.524 42.5801 106.66 42.1081 106.932C41.6441 107.196 41.2761 107.58 41.0041 108.084C40.7401 108.58 40.6081 109.156 40.6081 109.812C40.6081 110.468 40.7401 111.044 41.0041 111.54C41.2761 112.036 41.6441 112.42 42.1081 112.692C42.5801 112.956 43.1081 113.088 43.6921 113.088C44.5081 113.088 45.1801 112.844 45.7081 112.356C46.2361 111.868 46.5441 111.208 46.6321 110.376H43.2961V109.488H47.7961V110.328C47.7321 111.016 47.5161 111.648 47.1481 112.224C46.7801 112.792 46.2961 113.244 45.6961 113.58C45.0961 113.908 44.4281 114.072 43.6921 114.072C42.9161 114.072 42.2081 113.892 41.5681 113.532C40.9281 113.164 40.4201 112.656 40.0441 112.008C39.6761 111.36 39.4921 110.628 39.4921 109.812C39.4921 108.996 39.6761 108.264 40.0441 107.616C40.4201 106.96 40.9281 106.452 41.5681 106.092C42.2081 105.724 42.9161 105.54 43.6921 105.54C44.5801 105.54 45.3641 105.76 46.0441 106.2C46.7321 106.64 47.2321 107.26 47.5441 108.06H46.2361ZM55.4919 106.524V109.32H58.5399V110.22H55.4919V113.1H58.8999V114H54.3999V105.624H58.8999V106.524H55.4919ZM82.5555 105.696V114H81.4635V107.808L78.7035 114H77.9355L75.1635 107.796V114H74.0715V105.696H75.2475L78.3195 112.56L81.3915 105.696H82.5555ZM94.5114 112.14H90.8634L90.1914 114H89.0394L92.0634 105.684H93.3234L96.3354 114H95.1834L94.5114 112.14ZM94.1994 111.252L92.6874 107.028L91.1754 111.252H94.1994ZM103.881 105.636V110.928C103.881 111.672 104.061 112.224 104.421 112.584C104.789 112.944 105.297 113.124 105.945 113.124C106.585 113.124 107.085 112.944 107.445 112.584C107.813 112.224 107.997 111.672 107.997 110.928V105.636H109.089V110.916C109.089 111.612 108.949 112.2 108.669 112.68C108.389 113.152 108.009 113.504 107.529 113.736C107.057 113.968 106.525 114.084 105.933 114.084C105.341 114.084 104.805 113.968 104.325 113.736C103.853 113.504 103.477 113.152 103.197 112.68C102.925 112.2 102.789 111.612 102.789 110.916V105.636H103.881ZM120.475 114L118.483 110.58H117.163V114H116.071V105.636H118.771C119.403 105.636 119.935 105.744 120.367 105.96C120.807 106.176 121.135 106.468 121.351 106.836C121.567 107.204 121.675 107.624 121.675 108.096C121.675 108.672 121.507 109.18 121.171 109.62C120.843 110.06 120.347 110.352 119.683 110.496L121.783 114H120.475ZM117.163 109.704H118.771C119.363 109.704 119.807 109.56 120.103 109.272C120.399 108.976 120.547 108.584 120.547 108.096C120.547 107.6 120.399 107.216 120.103 106.944C119.815 106.672 119.371 106.536 118.771 106.536H117.163V109.704ZM129.624 105.636V114H128.532V105.636H129.624ZM136.237 109.812C136.237 108.996 136.421 108.264 136.789 107.616C137.157 106.96 137.657 106.448 138.289 106.08C138.929 105.712 139.637 105.528 140.413 105.528C141.325 105.528 142.121 105.748 142.801 106.188C143.481 106.628 143.977 107.252 144.289 108.06H142.981C142.749 107.556 142.413 107.168 141.973 106.896C141.541 106.624 141.021 106.488 140.413 106.488C139.829 106.488 139.305 106.624 138.841 106.896C138.377 107.168 138.013 107.556 137.749 108.06C137.485 108.556 137.353 109.14 137.353 109.812C137.353 110.476 137.485 111.06 137.749 111.564C138.013 112.06 138.377 112.444 138.841 112.716C139.305 112.988 139.829 113.124 140.413 113.124C141.021 113.124 141.541 112.992 141.973 112.728C142.413 112.456 142.749 112.068 142.981 111.564H144.289C143.977 112.364 143.481 112.984 142.801 113.424C142.121 113.856 141.325 114.072 140.413 114.072C139.637 114.072 138.929 113.892 138.289 113.532C137.657 113.164 137.157 112.656 136.789 112.008C136.421 111.36 136.237 110.628 136.237 109.812ZM152.166 106.524V109.32H155.214V110.22H152.166V113.1H155.574V114H151.074V105.624H155.574V106.524H152.166ZM171.838 113.112H174.766V114H170.746V105.636H171.838V113.112ZM184.878 114.084C184.102 114.084 183.394 113.904 182.754 113.544C182.114 113.176 181.606 112.668 181.23 112.02C180.862 111.364 180.678 110.628 180.678 109.812C180.678 108.996 180.862 108.264 181.23 107.616C181.606 106.96 182.114 106.452 182.754 106.092C183.394 105.724 184.102 105.54 184.878 105.54C185.662 105.54 186.374 105.724 187.014 106.092C187.654 106.452 188.158 106.956 188.526 107.604C188.894 108.252 189.078 108.988 189.078 109.812C189.078 110.636 188.894 111.372 188.526 112.02C188.158 112.668 187.654 113.176 187.014 113.544C186.374 113.904 185.662 114.084 184.878 114.084ZM184.878 113.136C185.462 113.136 185.986 113 186.45 112.728C186.922 112.456 187.29 112.068 187.554 111.564C187.826 111.06 187.962 110.476 187.962 109.812C187.962 109.14 187.826 108.556 187.554 108.06C187.29 107.556 186.926 107.168 186.462 106.896C185.998 106.624 185.47 106.488 184.878 106.488C184.286 106.488 183.758 106.624 183.294 106.896C182.83 107.168 182.462 107.556 182.19 108.06C181.926 108.556 181.794 109.14 181.794 109.812C181.794 110.476 181.926 111.06 182.19 111.564C182.462 112.068 182.83 112.456 183.294 112.728C183.766 113 184.294 113.136 184.878 113.136ZM199.867 109.692C200.171 109.74 200.447 109.864 200.695 110.064C200.951 110.264 201.151 110.512 201.295 110.808C201.447 111.104 201.523 111.42 201.523 111.756C201.523 112.18 201.415 112.564 201.199 112.908C200.983 113.244 200.667 113.512 200.251 113.712C199.843 113.904 199.359 114 198.799 114H195.679V105.636H198.679C199.247 105.636 199.731 105.732 200.131 105.924C200.531 106.108 200.831 106.36 201.031 106.68C201.231 107 201.331 107.36 201.331 107.76C201.331 108.256 201.195 108.668 200.923 108.996C200.659 109.316 200.307 109.548 199.867 109.692ZM196.771 109.248H198.607C199.119 109.248 199.515 109.128 199.795 108.888C200.075 108.648 200.215 108.316 200.215 107.892C200.215 107.468 200.075 107.136 199.795 106.896C199.515 106.656 199.111 106.536 198.583 106.536H196.771V109.248ZM198.703 113.1C199.247 113.1 199.671 112.972 199.975 112.716C200.279 112.46 200.431 112.104 200.431 111.648C200.431 111.184 200.271 110.82 199.951 110.556C199.631 110.284 199.203 110.148 198.667 110.148H196.771V113.1H198.703ZM212.603 114L210.611 110.58H209.291V114H208.199V105.636H210.899C211.531 105.636 212.063 105.744 212.495 105.96C212.935 106.176 213.263 106.468 213.479 106.836C213.695 107.204 213.803 107.624 213.803 108.096C213.803 108.672 213.635 109.18 213.299 109.62C212.971 110.06 212.475 110.352 211.811 110.496L213.911 114H212.603ZM209.291 109.704H210.899C211.491 109.704 211.935 109.56 212.231 109.272C212.527 108.976 212.675 108.584 212.675 108.096C212.675 107.6 212.527 107.216 212.231 106.944C211.943 106.672 211.499 106.536 210.899 106.536H209.291V109.704ZM221.751 106.524V109.32H224.799V110.22H221.751V113.1H225.159V114H220.659V105.624H225.159V106.524H221.751ZM223.959 103.824L221.403 105.192V104.376L223.959 102.876V103.824ZM236.916 112.14H233.268L232.596 114H231.444L234.468 105.684H235.728L238.74 114H237.588L236.916 112.14ZM236.604 111.252L235.092 107.028L233.58 111.252H236.604ZM246.286 105.636V110.928C246.286 111.672 246.466 112.224 246.826 112.584C247.194 112.944 247.702 113.124 248.35 113.124C248.99 113.124 249.49 112.944 249.85 112.584C250.218 112.224 250.402 111.672 250.402 110.928V105.636H251.494V110.916C251.494 111.612 251.354 112.2 251.074 112.68C250.794 113.152 250.414 113.504 249.934 113.736C249.462 113.968 248.93 114.084 248.338 114.084C247.746 114.084 247.21 113.968 246.73 113.736C246.258 113.504 245.882 113.152 245.602 112.68C245.33 112.2 245.194 111.612 245.194 110.916V105.636H246.286Z" fill="white"/>
</svg>
