<svg width="64" height="64" viewBox="0 0 64 64" fill="none" xmlns="http://www.w3.org/2000/svg">
<path d="M16.8796 54.912C21.1824 54.912 24.6894 51.4057 24.6894 47.1034C24.6894 42.8012 21.1826 39.2948 16.8796 39.2948C12.5767 39.2948 9.06982 42.8011 9.06982 47.1034C9.06982 51.4056 12.5766 54.912 16.8796 54.912ZM16.8796 40.806C20.3562 40.806 23.1778 43.6272 23.1778 47.1033C23.1778 50.5794 20.3562 53.4006 16.8796 53.4006C13.403 53.4006 10.5813 50.5794 10.5813 47.1033C10.5813 43.6272 13.403 40.806 16.8796 40.806Z" fill="#745ACB"/>
<path d="M30.2418 57.6124C30.4835 57.3707 30.5341 56.9876 30.3527 56.6856L28.8111 54.1163C29.4662 53.0081 29.9598 51.809 30.2823 50.5697L33.1847 49.8442C33.5173 49.7635 33.759 49.4615 33.759 49.1085V45.0785C33.759 44.7357 33.527 44.4337 33.1847 44.3428L30.2823 43.6173C29.9599 42.3681 29.4662 41.1788 28.8111 40.0707L30.3527 37.5013C30.5341 37.2091 30.4835 36.8264 30.2418 36.5746L27.39 33.7232C27.1483 33.4815 26.7651 33.431 26.4631 33.6123L23.8934 35.1537C22.7749 34.4987 21.5858 34.0052 20.3462 33.6827L19.6206 30.7808C19.5399 30.4482 19.2379 30.2065 18.8849 30.2065H14.8542C14.5114 30.2065 14.2093 30.4385 14.1184 30.7808L13.3928 33.6827C12.1532 34.0051 10.9642 34.4987 9.84567 35.1537L7.27595 33.6123C6.97346 33.431 6.60093 33.4815 6.34902 33.7232L3.49723 36.5746C3.25552 36.8162 3.20496 37.1994 3.38635 37.5013L4.92793 40.0707C4.27286 41.189 3.77924 42.3779 3.45678 43.6173L0.554397 44.3428C0.231973 44.4434 0 44.7459 0 45.0887V49.1187C0 49.4615 0.231961 49.7635 0.574337 49.8544L3.47672 50.5799C3.79914 51.8194 4.29277 53.0081 4.94787 54.1265L3.40629 56.6958C3.2249 56.9881 3.27546 57.3707 3.51717 57.6226L5.34129 59.4465C5.63356 59.7387 6.11744 59.7387 6.40925 59.4465C6.70152 59.1542 6.70152 58.6704 6.40925 58.3787L4.99843 56.9681L6.46958 54.5198C6.62081 54.2782 6.61061 53.9655 6.45937 53.7239C5.68322 52.5048 5.13953 51.1847 4.82683 49.8043C4.76652 49.5222 4.55496 49.3005 4.27243 49.23L1.5014 48.5347V45.6833L4.28312 44.9875C4.56519 44.917 4.77673 44.6953 4.83752 44.4133C5.14974 43.0226 5.69392 41.703 6.47006 40.4937C6.6213 40.252 6.63151 39.9496 6.48027 39.6977L5.00912 37.2495L7.02445 35.2344L9.48325 36.7054C9.72496 36.8566 10.0376 36.8464 10.2793 36.6952C11.4986 35.9191 12.8189 35.3755 14.1995 35.0629C14.4816 35.0026 14.7034 34.7808 14.7739 34.5085L15.4693 31.7379H18.3211L19.0165 34.5085C19.087 34.7906 19.3088 35.0021 19.5909 35.0629C20.9817 35.375 22.3016 35.9191 23.5111 36.6952C23.7528 36.8464 24.0552 36.8566 24.3072 36.7054L26.7557 35.2344L28.7711 37.2495L27.2999 39.6977C27.1487 39.9394 27.1589 40.252 27.3101 40.4937C28.0863 41.703 28.63 43.0226 28.9427 44.4133C29.003 44.6953 29.2247 44.917 29.4971 44.9773L32.2681 45.6727V48.524L29.4757 49.2193C29.1936 49.2898 28.9821 49.5116 28.9213 49.7834C28.6091 51.174 28.0649 52.4937 27.2888 53.703C27.1375 53.9447 27.1273 54.2471 27.2785 54.499L28.7497 56.9472L26.7344 58.9622L24.2858 57.4913C24.0441 57.3401 23.7314 57.3503 23.4897 57.5015C22.2704 58.2775 20.9501 58.8211 19.5695 59.1338C19.2874 59.1941 19.0657 59.4056 18.9952 59.6881L18.2997 62.4587H15.4479L14.7632 59.6979C14.6927 59.4158 14.4709 59.2043 14.1888 59.1435C12.798 58.8314 11.4781 58.2873 10.2686 57.5112C10.0269 57.36 9.72446 57.3498 9.47255 57.501L8.02135 58.3777C7.65856 58.5892 7.54768 59.0526 7.75924 59.4154C7.97078 59.7679 8.43425 59.889 8.79705 59.6775L9.85527 59.0429C10.9738 59.6979 12.1629 60.1914 13.4024 60.5138L14.128 63.4158C14.2087 63.7484 14.5108 63.99 14.8638 63.99H18.8945C19.2373 63.99 19.5393 63.7581 19.6302 63.4158L20.3558 60.5138C21.5955 60.1914 22.7844 59.6979 23.903 59.0429L26.4727 60.5842C26.765 60.7554 27.1477 60.715 27.3996 60.4734L30.2418 57.6124Z" fill="#745ACB"/>
<path d="M47.1096 9.06824C42.8067 9.06824 39.2998 12.5745 39.2998 16.8768C39.2998 21.1791 42.8066 24.6854 47.1096 24.6854C51.4124 24.6854 54.9193 21.1792 54.9193 16.8768C54.9193 12.5746 51.4125 9.06824 47.1096 9.06824ZM47.1096 23.1742C43.633 23.1742 40.8113 20.353 40.8113 16.877C40.8113 13.4009 43.633 10.5797 47.1096 10.5797C50.5862 10.5797 53.4078 13.4009 53.4078 16.877C53.4078 20.353 50.5862 23.1742 47.1096 23.1742Z" fill="#745ACB"/>
<path d="M63.4154 14.1259L60.5131 13.4004C60.1906 12.1512 59.697 10.9619 59.0419 9.85375L60.5835 7.28441C60.7649 6.99218 60.7143 6.6095 60.4726 6.35762L58.3567 4.24201C58.0644 3.94979 57.5805 3.94979 57.2887 4.24201C56.9964 4.53424 56.9964 5.01805 57.2887 5.30982L58.9918 7.01265L57.5207 9.46087C57.3694 9.70255 57.3796 10.0152 57.5309 10.2568C58.307 11.4662 58.8507 12.7858 59.1634 14.1765C59.2237 14.4585 59.4455 14.6802 59.7178 14.7405L62.4888 15.4358V18.2872L59.7067 18.9927C59.4246 19.0632 59.213 19.285 59.1523 19.5568C58.84 20.9474 58.2959 22.2671 57.5197 23.4764C57.3685 23.7181 57.3583 24.0205 57.5095 24.2724L58.9806 26.7206L56.9653 28.7356L54.5167 27.2647C54.275 27.1135 53.9623 27.1237 53.7206 27.2749C52.5014 28.0509 51.1811 28.5945 49.8004 28.9072C49.5184 28.9675 49.2966 29.179 49.2261 29.4615L48.5307 32.2321H45.6789L44.9941 29.4712C44.9236 29.1892 44.7019 28.9777 44.4198 28.9169C43.0289 28.6048 41.7091 28.0607 40.4996 27.2846C40.2579 27.1334 39.9554 27.1232 39.7035 27.2744L37.2447 28.7453L35.2294 26.7303L36.7005 24.2821C36.8518 24.0404 36.8416 23.7278 36.6903 23.4861C35.9142 22.2671 35.3705 20.947 35.0578 19.5665C34.9975 19.2845 34.7859 19.0628 34.5034 18.9923L31.7323 18.2969V15.4456L34.5034 14.7503C34.7854 14.6797 34.997 14.458 35.0578 14.176C35.37 12.7853 35.9142 11.4657 36.6903 10.2564C36.8416 10.0147 36.8518 9.71228 36.7005 9.46041L35.2294 7.01219L37.2447 4.99717L39.7035 6.46809C39.9452 6.6193 40.2579 6.6091 40.4996 6.45789C41.7188 5.68185 43.0392 5.13825 44.4198 4.82558C44.7019 4.76528 44.9236 4.54356 44.9941 4.27127L45.6896 1.50065H48.5414L49.2266 4.28243C49.2971 4.56446 49.5188 4.77597 49.8009 4.83675C51.1918 5.14892 52.5116 5.69302 53.7211 6.46905C53.9628 6.62026 54.2653 6.63047 54.5172 6.47925L55.7569 5.73384C56.1197 5.52233 56.2305 5.05893 56.019 4.69619C55.8074 4.34365 55.344 4.22259 54.9812 4.43411L54.1345 4.94806C53.016 4.2931 51.8269 3.79955 50.5874 3.47714L49.8618 0.575189C49.7708 0.231938 49.4688 0 49.126 0H45.0953C44.7525 0 44.4505 0.231926 44.3595 0.574251L43.634 3.4762C42.3943 3.79858 41.2053 4.29213 40.0868 4.94713L37.5171 3.40578C37.2146 3.22442 36.8421 3.27497 36.5902 3.51664L33.7384 6.36801C33.4967 6.60968 33.4461 6.99282 33.6275 7.2948L35.1691 9.86414C34.514 10.9825 34.0204 12.1714 33.6979 13.4108L30.7955 14.1362C30.4629 14.217 30.2212 14.5189 30.2212 14.8719V18.902C30.2212 19.2448 30.4532 19.5467 30.7955 19.6376L33.6979 20.3631C34.0203 21.6026 34.514 22.7914 35.1691 23.9097L33.6275 26.4791C33.4461 26.7713 33.4967 27.154 33.7384 27.4059L36.5902 30.2572C36.8319 30.4989 37.2151 30.5495 37.5171 30.3681L40.0868 28.8268C41.2053 29.4817 42.3944 29.9753 43.634 30.2977L44.3595 33.1996C44.4403 33.5322 44.7423 33.7739 45.0953 33.7739H49.126C49.4688 33.7739 49.7708 33.542 49.8618 33.1996L50.5874 30.2977C51.827 29.9753 53.016 29.4818 54.1345 28.8268L56.7042 30.3681C56.9965 30.5393 57.3793 30.4989 57.6312 30.2572L60.483 27.4059C60.7247 27.1642 60.7752 26.7811 60.5938 26.4791L59.0523 23.9097C59.7073 22.8016 60.201 21.6025 60.5234 20.3631L63.4258 19.6376C63.7584 19.5569 64.0001 19.255 64.0001 18.902V14.8719C63.9899 14.5189 63.758 14.217 63.4156 14.126L63.4154 14.1259Z" fill="#745ACB"/>
<path d="M0.755854 36.6561C1.16922 36.6561 1.51159 36.3133 1.51159 35.9004V28.6865L7.41695 27.2054C7.69902 27.1349 7.91057 26.9132 7.97135 26.6414C8.58606 23.8707 9.68466 21.231 11.2262 18.8128C11.3775 18.5711 11.3877 18.2687 11.2364 18.0168L8.10258 12.7878L12.7882 8.10284L18.018 11.2362C18.2598 11.3874 18.5724 11.3772 18.8141 11.226C21.2326 9.68468 23.8728 8.59636 26.6439 7.97163C26.9259 7.91133 27.1477 7.68961 27.208 7.41732L28.6791 1.51284H35.8941C36.3075 1.51284 36.6499 1.17005 36.6499 0.757213C36.6499 0.343912 36.307 0.00158691 35.8941 0.00158691H28.0844C27.7415 0.00158691 27.4395 0.233513 27.3486 0.575838L25.8477 6.60085C23.2177 7.23541 20.7185 8.27352 18.3906 9.69386L13.0498 6.49005C12.7474 6.30869 12.3748 6.35924 12.1229 6.60092L6.6008 12.1222C6.35909 12.3639 6.30853 12.747 6.48993 13.049L9.69421 18.3889C8.27319 20.7166 7.23542 23.215 6.60074 25.845L0.574825 27.3563C0.242188 27.437 0.000488751 27.739 0.000488751 28.092V35.9005C2.48546e-05 36.3134 0.342865 36.6562 0.755764 36.6562L0.755854 36.6561Z" fill="#745ACB"/>
<path d="M27.7426 18.2073C23.1775 19.6179 19.6206 23.1747 18.2098 27.7387C18.0887 28.1418 18.3105 28.5648 18.7136 28.6859C18.7841 28.7058 18.8648 28.716 18.9354 28.716C19.2578 28.716 19.5603 28.5045 19.6609 28.1821C20.9205 24.1016 24.1049 20.9074 28.186 19.6583C28.5892 19.5373 28.8109 19.1142 28.6899 18.7111C28.5688 18.3085 28.1355 18.0868 27.7425 18.2074L27.7426 18.2073Z" fill="#745ACB"/>
<path d="M63.2338 27.3353C62.8205 27.3353 62.4781 27.6781 62.4781 28.0909V35.3048L56.5727 36.786C56.2906 36.8565 56.0791 37.0782 56.0183 37.3602C55.4036 40.1308 54.305 42.7609 52.7634 45.1888C52.6122 45.4304 52.602 45.7329 52.7532 45.9847L55.8871 51.2138L51.2014 55.8987L45.9716 52.7653C45.7299 52.6141 45.4172 52.6243 45.1755 52.7756C42.7571 54.3169 40.1168 55.4052 37.3458 56.0299C37.0637 56.0902 36.842 56.312 36.7817 56.5843L35.3003 62.4887H28.0853C27.672 62.4887 27.3296 62.8315 27.3296 63.2444C27.3296 63.6577 27.6724 64 28.0853 64H35.8951C36.2379 64 36.5399 63.7681 36.6309 63.4257L38.1424 57.4007C40.7725 56.7662 43.2716 55.7281 45.5995 54.3077L50.9403 57.5115C51.2326 57.6827 51.6153 57.6423 51.8672 57.4007L57.3893 51.8794C57.631 51.6377 57.6816 51.2546 57.5002 50.9526L54.2959 45.6126C55.717 43.2849 56.7649 40.7866 57.3894 38.1566L63.4153 36.6453C63.748 36.5646 63.9897 36.2626 63.9897 35.9096V28.101C63.9897 27.6678 63.6468 27.3352 63.2339 27.3352L63.2338 27.3353Z" fill="#745ACB"/>
<path d="M36.0256 45.8041C36.0962 45.8041 36.1769 45.7939 36.2474 45.7739C40.8125 44.3735 44.3694 40.8065 45.7802 36.2425C45.9013 35.8395 45.6795 35.4164 45.2764 35.2953C44.8834 35.1743 44.4603 35.396 44.329 35.7991C43.0796 39.8796 39.8856 43.0733 35.8044 44.3229C35.4013 44.444 35.1795 44.867 35.3006 45.2701C35.4013 45.5925 35.7033 45.804 36.0257 45.804L36.0256 45.8041Z" fill="#745ACB"/>
</svg>
